<?xml version="1.0" encoding="UTF-8" standalone="no"?>
<!-- Created with Inkscape (http://www.inkscape.org/) -->

<svg
   width="160"
   height="160"
   viewBox="0 0 42.333332 42.333333"
   version="1.1"
   id="svg5"
   xml:space="preserve"
   xmlns="http://www.w3.org/2000/svg"
   xmlns:svg="http://www.w3.org/2000/svg"><defs
     id="defs2"><rect
       x="12.727922"
       y="89.095454"
       width="96.86501"
       height="18.305086"
       id="rect30768" /></defs><g
     id="layer1"><g
       id="g15413"
       transform="matrix(1.994083,0,0,1.994083,-23.136536,-43.056368)"><path
         id="rect15018"
         style="fill:#7f7474;fill-opacity:1;stroke-width:0.068;stroke-linecap:round;stroke-linejoin:round;stop-color:#000000"
         d="m 23.164478,27.748177 h -1.976624 c 0.08176,0.352952 0.172818,0.705898 0.22841,1.05885 h 1.56993 c 0.0436,-0.356634 0.114977,-0.706763 0.178284,-1.05885 z" /><path
         id="path15131"
         style="fill:#b1b1b1;fill-opacity:1;stroke:none;stroke-width:0.068;stroke-linecap:round;stroke-linejoin:round;stroke-opacity:1;stop-color:#000000"
         d="m 23.289018,26.789062 h -2.266529 c 0.02499,0.319675 0.09131,0.639441 0.165365,0.959115 h 1.976624 c 0.05684,-0.316131 0.106841,-0.63395 0.12454,-0.959115 z" /><path
         id="path15129"
         style="fill:#7f7474;fill-opacity:1;stroke-width:0.068;stroke-linecap:round;stroke-linejoin:round;stop-color:#000000"
         d="m 21.06073,26.012366 c -0.05176,0.258918 -0.05848,0.517779 -0.03824,0.776696 h 2.266529 c 0.01379,-0.253406 0.0081,-0.511312 -0.02997,-0.776696 z" /></g><g
       id="g32596"
       transform="rotate(90,17.229867,31.508009)"><path
         id="path31779"
         style="font-size:26.6667px;line-height:0px;font-family:'Among Personal Use';-inkscape-font-specification:'Among Personal Use';letter-spacing:-1.73px;white-space:pre;shape-inside:url(#rect30768);fill:#0065b3;stroke-width:1.33417;stroke-linecap:round;stroke-linejoin:round;stroke-dashoffset:1.24195;stop-color:#000000"
         d="m 5.3925781,23.714844 a 0.23851604,0.23851604 0 0 0 -0.2382812,0.238281 v 2.283203 a 2.1515198,2.1515198 0 0 0 -1.7128907,-0.853516 2.1515198,2.1515198 0 0 0 -2.1523437,2.150391 2.1515198,2.1515198 0 0 0 2.1523437,2.152344 2.1515198,2.1515198 0 0 0 1.7128907,-0.853516 v 0.257813 1.953125 a 0.23851604,0.23851604 0 0 0 0.2382812,0.238281 h 0.6054688 a 0.23851604,0.23851604 0 0 0 0.2382812,-0.238281 v -1.714844 h 0.3828125 c 0.2755969,0 0.53199,-0.07766 0.75,-0.210937 l 0.00195,-0.002 c 0.1134082,-0.06701 0.1828197,-0.181111 0.2734374,-0.27539 v 0.25 1.953125 A 0.23851604,0.23851604 0 0 0 7.8828125,31.28125 H 8.4902344 A 0.23851604,0.23851604 0 0 0 8.7285156,31.042969 V 29.328125 H 9.1113281 C 9.3271644,29.328125 9.5,29.504301 9.5,29.710938 v 1.332031 a 0.23851604,0.23851604 0 0 0 0.2382812,0.238281 h 0.6015628 a 0.23851604,0.23851604 0 0 0 0.238281,-0.238281 v -0.1875 c 0.26578,0.261236 0.628319,0.425781 1.025391,0.425781 0.503386,0 0.912104,-0.278451 1.164062,-0.667969 0.106543,0.182103 0.248026,0.344211 0.441406,0.457031 0.219224,0.13451 0.474729,0.210938 0.744141,0.210938 0.268573,0 0.523422,-0.07526 0.742187,-0.208984 l 0.002,-0.002 h 0.002 c 0.114992,-0.06809 0.186855,-0.185065 0.279297,-0.28125 v 0.253907 a 0.23851604,0.23851604 0 0 0 0.238281,0.238281 h 2.455078 a 0.23851604,0.23851604 0 0 0 0.238281,-0.238281 v -0.25 c 0.09108,0.09512 0.161175,0.209859 0.275391,0.277343 l 0.002,0.002 c 0.218392,0.1335 0.47378,0.208984 0.748047,0.208984 0.270068,0 0.526516,-0.07582 0.746094,-0.210938 0.428317,-0.253606 0.720704,-0.722337 0.720703,-1.253906 V 29.34375 a 0.23851604,0.23851604 0 0 0 -0.238282,-0.238281 h -0.607421 a 0.23851604,0.23851604 0 0 0 -0.238282,0.238281 v 0.472656 c 0,0.206076 -0.176737,0.382813 -0.382812,0.382813 -0.215836,0 -0.388672,-0.176176 -0.388672,-0.382813 v -4.636718 c 0,-0.216388 0.169591,-0.382813 0.388672,-0.382813 0.209388,0 0.382812,0.166975 0.382812,0.382813 v 0.472656 a 0.23851604,0.23851604 0 0 0 0.238282,0.238281 h 0.607421 a 0.23851604,0.23851604 0 0 0 0.238282,-0.238281 v -0.472656 c 0,-0.140125 -0.06829,-0.254992 -0.105469,-0.382813 h 0.447266 v 6.246094 a 0.23851604,0.23851604 0 0 0 0.238281,0.238281 h 0.607422 a 0.23851604,0.23851604 0 0 0 0.238281,-0.238281 v -6.246094 h 0.587891 C 22.379096,24.92458 22.3125,25.039829 22.3125,25.179688 v 1.863281 c 0,0.436581 0.192234,0.83396 0.503906,1.103515 0.06953,0.06084 0.142722,0.109684 0.214844,0.150391 h 0.002 c 0.218185,0.133887 0.473355,0.212891 0.744141,0.212891 0.21908,0 0.382812,0.163732 0.382812,0.382812 v 0.929688 c 0,0.21908 -0.163731,0.382812 -0.382812,0.382812 -0.219083,0 -0.382813,-0.163731 -0.382813,-0.382812 v -0.05664 -0.775391 A 0.23851604,0.23851604 0 0 0 23.15625,28.751953 H 22.550781 A 0.23851604,0.23851604 0 0 0 22.3125,28.990234 v 0.775391 0.05664 c 0,0.532362 0.293029,1.001759 0.720703,1.261718 a 0.23851604,0.23851604 0 0 0 0.0078,0.0059 c 0.158289,0.08706 0.343232,0.163265 0.552734,0.189453 a 0.23851604,0.23851604 0 0 0 0.0293,0.002 h 0.310547 a 0.23851604,0.23851604 0 0 0 0.0293,-0.002 c 0.209725,-0.02622 0.393305,-0.102841 0.550781,-0.189453 a 0.23851604,0.23851604 0 0 0 0.0078,-0.0059 c 0.427347,-0.25976 0.722657,-0.728658 0.722657,-1.261718 v -0.929688 c 0,-0.437428 -0.194116,-0.835852 -0.50586,-1.105469 -0.06449,-0.05643 -0.137461,-0.113422 -0.220703,-0.160156 -0.216195,-0.124726 -0.469324,-0.201172 -0.740234,-0.201172 -0.215838,0 -0.382813,-0.173424 -0.382813,-0.382812 v -1.863281 c 0,-0.219083 0.16373,-0.382813 0.382813,-0.382813 0.219081,0 0.382812,0.16373 0.382812,0.382813 v 0.234374 0.238282 0.974609 a 0.23851604,0.23851604 0 0 0 0.238282,0.238281 h 0.607421 a 0.23851604,0.23851604 0 0 0 0.238282,-0.238281 v -0.974609 -0.238282 -0.234374 c 0,-0.538732 -0.297255,-1.003141 -0.722657,-1.261719 a 0.23851604,0.23851604 0 0 0 -0.0039,-0.0039 c -0.217296,-0.125363 -0.4707,-0.199218 -0.740234,-0.199218 -0.269534,0 -0.52294,0.07386 -0.740235,0.199218 a 0.23851604,0.23851604 0 0 0 -0.0039,0.0039 c -0.114771,0.06976 -0.188767,0.186013 -0.28125,0.283203 v -0.248047 a 0.23851604,0.23851604 0 0 0 -0.238281,-0.238281 h -0.923828 -1.53125 a 0.23851604,0.23851604 0 0 0 -0.238282,0.238281 v 0.107422 c -0.05241,-0.0422 -0.08308,-0.107602 -0.140624,-0.142578 a 0.23851604,0.23851604 0 0 0 -0.0039,-0.0039 c -0.217296,-0.125363 -0.4707,-0.199218 -0.740234,-0.199218 -0.275264,0 -0.529187,0.07408 -0.746094,0.199218 a 0.23851604,0.23851604 0 0 0 -0.0039,0.0039 c -0.113659,0.06909 -0.184287,0.185319 -0.275391,0.28125 v -0.246094 a 0.23851604,0.23851604 0 0 0 -0.238281,-0.238281 h -2.455078 a 0.23851604,0.23851604 0 0 0 -0.01758,0.01758 0.23851604,0.23851604 0 0 0 -0.01758,-0.01758 h -0.607422 a 0.23851604,0.23851604 0 0 0 -0.238281,0.238281 v 0.605469 1.347656 0.607422 3.302734 c 0,0.206076 -0.176738,0.382813 -0.382813,0.382813 -0.206074,0 -0.38281,-0.176737 -0.382813,-0.382813 V 29.546874 29.18164 a 0.23851604,0.23851604 0 0 0 -0.238281,-0.238282 h -0.263672 v -3.763671 c 0,-0.806257 -0.658587,-1.464844 -1.464843,-1.464844 -0.525803,0 -0.97315,0.297221 -1.232422,0.720703 -0.125346,-0.21081 -0.30055,-0.390408 -0.5097659,-0.517578 a 0.23851604,0.23851604 0 0 0 -0.00391,-0.0039 C 9.6405107,23.788906 9.3865913,23.714844 9.1113281,23.714844 H 8.4902344 7.8828125 a 0.23851604,0.23851604 0 0 0 -0.2382813,0.238281 v 0.244141 C 7.5538901,24.102178 7.4839543,23.98657 7.3710938,23.917969 a 0.23851604,0.23851604 0 0 0 -0.00391,-0.0039 C 7.1496416,23.78854 6.8944038,23.714844 6.6191406,23.714844 H 5.9980469 Z m 0.84375,1.082031 h 0.3828125 c 0.2158363,0 0.390625,0.177093 0.390625,0.382813 v 2.68164 c 0,0.20572 -0.1747887,0.382813 -0.390625,0.382813 H 6.2363281 Z m 2.4921875,0 H 9.1113281 C 9.3271644,24.796875 9.5,24.973051 9.5,25.179688 v 2.68164 c 0,0.206637 -0.1728356,0.382813 -0.3886719,0.382813 H 8.7285156 Z m 2.8750004,0 c 0.219081,0 0.388672,0.166425 0.388672,0.382813 v 4.636718 c 0,0.206637 -0.172836,0.382813 -0.388672,0.382813 -0.206076,0 -0.382813,-0.176737 -0.382813,-0.382813 v -4.636718 c 0,-0.215838 0.173425,-0.382813 0.382813,-0.382813 z m 4.458984,0 h 1.511719 c -0.03647,0.127925 -0.103516,0.243051 -0.103516,0.382813 V 28.375 A 0.23851604,0.23851604 0 0 0 17.339844,28.244141 H 16.0625 V 27.798828 27.191406 26.394531 Z M 3.4140625,26.332031 a 1.2194594,1.2194594 0 0 1 1.2207031,1.21875 1.2194594,1.2194594 0 0 1 -1.2207031,1.220703 1.2194594,1.2194594 0 0 1 -1.21875,-1.220703 1.2194594,1.2194594 0 0 1 1.21875,-1.21875 z m 14.0566405,2.865235 v 0.61914 c 0,0.138614 0.06698,0.254996 0.103516,0.382813 H 16.0625 v -0.871094 h 1.277344 a 0.23851604,0.23851604 0 0 0 0.130859,-0.130859 z" /><path
         id="path31783"
         style="font-size:26.6667px;line-height:0px;font-family:'Among Personal Use';-inkscape-font-specification:'Among Personal Use';letter-spacing:-1.73px;white-space:pre;shape-inside:url(#rect30768);fill:#ffffff;stroke-width:1.33417;stroke-linecap:round;stroke-linejoin:round;stroke-dashoffset:1.24195;stop-color:#000000"
         d="m 5.3925781,23.001953 c -0.4972804,4.9e-4 -0.9506821,0.453892 -0.9511719,0.951172 v 0.957031 C 4.1187832,24.78617 3.7891907,24.670402 3.4433594,24.669922 a 0.71248342,0.71248342 0 0 0 -0.00195,0 c -0.749708,-2.87e-4 -1.4950264,0.308007 -2.0253906,0.83789 -0.53036418,0.529884 -0.83945044,1.275683 -0.83984372,2.025391 -2.8742e-4,0.750141 0.30941375,1.494961 0.83984372,2.025391 0.53043,0.53043 1.2752494,0.840131 2.0253906,0.839844 a 0.71248342,0.71248342 0 0 0 0.00195,0 c 0.3458313,-4.8e-4 0.6754238,-0.116249 0.9980468,-0.240235 v 0.884766 c 4.898e-4,0.49728 0.4538915,0.950682 0.9511719,0.951172 h 0.6054688 c 0.4900443,-4.83e-4 0.9300062,-0.442974 0.9433593,-0.931641 0.013821,0.488345 0.4516308,0.931159 0.9414063,0.931641 h 0.6074219 c 0.233899,-2.31e-4 0.4514031,-0.113695 0.6230468,-0.271485 0.1718194,0.15851 0.390485,0.271254 0.625,0.271485 h 0.6015628 c 0.230897,-2.28e-4 0.444476,-0.113281 0.615234,-0.267579 0.22571,0.08066 0.396061,0.267579 0.648438,0.267579 0.445676,0 0.8233,-0.170864 1.152343,-0.404297 0.03712,0.02599 0.04784,0.0662 0.08789,0.08984 0.325544,0.198077 0.708031,0.314453 1.109375,0.314453 0.269204,0 0.50428,-0.117084 0.746094,-0.210938 a 0.71248342,0.71248342 0 0 0 0.02148,-0.0059 c 5.84e-4,-2.34e-4 0.0014,2.34e-4 0.002,0 a 0.71248342,0.71248342 0 0 0 0.339844,-0.09375 c 0.0029,-0.0017 10e-4,-0.0022 0.0039,-0.0039 a 0.71248342,0.71248342 0 0 0 0.002,-0.002 0.71248342,0.71248342 0 0 0 0.13086,-0.101562 l -0.207031,0.207031 h -0.257813 c 0.149563,0.100467 0.301215,0.210759 0.482422,0.210938 h 2.455078 c 0.18571,-1.83e-4 0.34218,-0.111793 0.494141,-0.216797 0.24804,0.0986 0.491008,0.216797 0.769531,0.216797 0.401261,0 0.785288,-0.113928 1.113281,-0.314453 0.07451,-0.04438 0.113118,-0.128871 0.181641,-0.181641 0.172603,0.274437 0.425641,0.495772 0.751953,0.496094 h 0.607422 c 0.360913,-3.56e-4 0.634996,-0.267109 0.792968,-0.587891 0.100844,0.08987 0.165745,0.2169 0.28125,0.287109 a 0.71248342,0.71248342 0 0 0 0.0332,0.02148 c 0.209789,0.115385 0.48151,0.230598 0.808593,0.271484 0.03746,0.0047 0.07553,0.0076 0.113282,0.0078 a 0.71248342,0.71248342 0 0 0 0.0039,0 h 0.310547 a 0.71248342,0.71248342 0 0 0 0.0039,0 c 0.03775,-1.88e-4 0.07582,-0.0031 0.113281,-0.0078 0.32847,-0.04106 0.599765,-0.157702 0.806641,-0.271484 a 0.71248342,0.71248342 0 0 0 0.0332,-0.02148 c 0.628035,-0.381746 1.066406,-1.07492 1.066406,-1.871093 v -0.929688 c 0,-0.566994 -0.249552,-1.069537 -0.615234,-1.460937 0.334566,-0.15187 0.614869,-0.433536 0.615234,-0.804688 v -0.974609 -0.238282 -0.234374 c 0,-0.797753 -0.441225,-1.485594 -1.060547,-1.865235 a 0.71248342,0.71248342 0 0 0 -0.02344,-0.01758 c -0.32005,-0.184644 -0.696031,-0.294922 -1.095703,-0.294922 -0.285036,0 -0.531857,0.111899 -0.78125,0.210938 -0.149564,-0.100467 -0.301215,-0.210759 -0.482422,-0.210938 h -0.923828 -1.53125 c -0.160731,1.58e-4 -0.29015,0.106689 -0.427735,0.1875 -0.226487,-0.07955 -0.441656,-0.1875 -0.695312,-0.1875 -0.286522,0 -0.533553,0.110552 -0.783203,0.208985 -0.149082,-0.09958 -0.300147,-0.208807 -0.480469,-0.208985 h -2.455078 a 0.71248342,0.71248342 0 0 0 -0.01758,0.0059 0.71248342,0.71248342 0 0 0 -0.01758,-0.0059 h -0.607422 c -0.49728,4.9e-4 -0.950682,0.453892 -0.951172,0.951172 v 0.605469 0.242187 c -0.202222,-0.991047 -0.972551,-1.798828 -2.019531,-1.798828 -0.475647,0 -0.878259,0.192188 -1.228516,0.453125 -0.05344,-0.03998 -0.08127,-0.105428 -0.138672,-0.140625 a 0.71248342,0.71248342 0 0 0 -0.02344,-0.01758 C 9.8928993,23.112243 9.5143785,23.001953 9.1113281,23.001953 H 8.4902344 7.8828125 c -0.1803221,1.78e-4 -0.3313867,0.1094 -0.4804687,0.208985 C 7.1521631,23.112729 6.904721,23.001953 6.6191406,23.001953 H 5.9980469 Z m 14.6562499,0.306641 0.03906,0.03125 a 0.71248342,0.71248342 0 0 0 -0.0293,-0.02148 0.71248342,0.71248342 0 0 0 -0.0098,-0.0098 z m -9.779297,0.03125 0.101563,0.08008 c -0.0051,-0.0053 -0.01037,-0.01049 -0.01563,-0.01563 a 0.71248342,0.71248342 0 0 0 -0.08594,-0.06445 z m 14.660157,0 0.101562,0.08008 c -0.0051,-0.0053 -0.01037,-0.01049 -0.01563,-0.01563 a 0.71248342,0.71248342 0 0 0 -0.08594,-0.06445 z M 3.4140625,25.619141 c -0.099549,1.01e-4 0.4746082,0.05644 0.3769531,0.03711 -0.097655,-0.01933 0.4533343,0.147387 0.3613282,0.109375 -0.079685,-0.03292 0.2420184,0.136219 0.2890624,0.154297 v 0.316406 l 0.2851563,-0.0957 c 0.014614,0.01052 0.065383,0.0556 0.052734,0.04297 -0.070448,-0.07034 0.2975558,0.375699 0.2421875,0.292968 -0.055368,-0.08273 0.2158937,0.42593 0.1777344,0.333985 -0.038159,-0.09194 0.1308113,0.460905 0.1113281,0.363281 -0.019483,-0.09762 0.037167,0.476502 0.037109,0.376953 -1.015e-4,-0.09952 -0.056449,0.474571 -0.037109,0.376953 0.01934,-0.09762 -0.147411,0.455241 -0.109375,0.363282 0.038036,-0.09196 -0.2349542,0.416742 -0.1796875,0.333984 0.055267,-0.08276 -0.3106024,0.363337 -0.2402344,0.292969 0.00567,-0.0057 -0.02295,0.01998 -0.023437,0.01953 L 4.4414062,28.832031 v 0.257813 0.09375 c -0.051642,0.02074 -0.3661427,0.186986 -0.2871093,0.154297 0.09196,-0.03804 -0.4608993,0.128714 -0.3632813,0.109375 0.097618,-0.01934 -0.4764684,0.03701 -0.3769531,0.03711 0.099549,5.8e-5 -0.4745772,-0.05659 -0.3769531,-0.03711 0.097624,0.01948 -0.4552264,-0.149488 -0.3632813,-0.111328 0.091945,0.03816 -0.4167152,-0.233103 -0.3339843,-0.177735 0.082731,0.05537 -0.3633044,-0.312636 -0.2929688,-0.242187 0.070336,0.07045 -0.2954701,-0.375789 -0.2402344,-0.292969 0.055236,0.08282 -0.2157465,-0.425991 -0.1777344,-0.333985 0.038012,0.09201 -0.1287018,-0.458983 -0.109375,-0.361328 0.019327,0.09765 -0.037008,-0.476502 -0.037109,-0.376953 -5.79e-5,0.09958 0.05658,-0.474614 0.037109,-0.376953 -0.01947,0.09766 0.1494637,-0.45332 0.1113282,-0.361328 -0.038136,0.09199 0.2330718,-0.416777 0.1777344,-0.333984 -0.055337,0.08279 0.3106502,-0.363385 0.2402343,-0.292969 -0.070416,0.07042 0.375761,-0.295572 0.2929688,-0.240235 -0.082792,0.05534 0.425976,-0.215869 0.3339843,-0.177734 -0.091992,0.03814 0.4589893,-0.130798 0.3613282,-0.111328 -0.097661,0.01947 0.4765361,-0.03717 0.3769531,-0.03711 z m 15.8457035,0.855468 c 0.102296,0.04087 0.185486,0.128797 0.296875,0.128907 h 0.474609 v 1.789062 h -0.474609 c -0.111389,1.09e-4 -0.194579,0.08804 -0.296875,0.128906 z m 3.333984,5.169922 c 0.01042,0.0078 0.05599,0.04036 0.06836,0.04883 z m 2.367188,0 -0.06836,0.04883 a 0.71248342,0.71248342 0 0 0 0.03711,-0.02539 c 0.01054,-0.0076 0.02103,-0.01544 0.03125,-0.02344 z" /><path
         id="path32567"
         style="fill:#ffffff;fill-opacity:1;stroke:#ffffff;stroke-width:0.0877414;stroke-linecap:round;stroke-linejoin:round;stroke-dasharray:none;stroke-dashoffset:1.24195;stroke-opacity:1;stop-color:#000000"
         d="m 3.4079291,26.348487 a 1.211528,1.211528 0 0 0 -1.211528,1.211528 1.211528,1.211528 0 0 0 1.211528,1.211527 1.211528,1.211528 0 0 0 1.2115279,-1.211527 1.211528,1.211528 0 0 0 -1.2115279,-1.211528 z m 0.01451,0.315578 a 0.91047894,0.91047894 0 0 1 0.9104595,0.910458 0.91047894,0.91047894 0 0 1 -0.9104595,0.91046 0.91047894,0.91047894 0 0 1 -0.9104597,-0.91046 0.91047894,0.91047894 0 0 1 0.9104597,-0.910458 z" /><path
         id="path31704"
         style="font-style:normal;font-variant:normal;font-weight:normal;font-stretch:normal;font-size:26.6667px;line-height:0px;font-family:'Among Personal Use';-inkscape-font-specification:'Among Personal Use';letter-spacing:-1.73px;white-space:pre;shape-inside:url(#rect30768);fill:#0065b3;fill-opacity:1;stroke:#ffffff;stroke-width:0;stroke-linecap:round;stroke-linejoin:round;stroke-dasharray:none;stroke-dashoffset:1.24195;stroke-opacity:1;stop-color:#000000"
         d="M 5.3924357,23.714832 A 0.23851604,0.23851604 0 0 0 5.1542074,23.95306 v 2.282548 A 2.1515198,2.1515198 0 0 0 3.4406169,25.38243 2.1515198,2.1515198 0 0 0 1.2888102,27.53372 2.1515198,2.1515198 0 0 0 3.4406169,29.68501 2.1515198,2.1515198 0 0 0 5.1542074,28.831832 v 0.257865 1.953369 a 0.23851604,0.23851604 0 0 0 0.2382283,0.238229 h 0.6056478 a 0.23851604,0.23851604 0 0 0 0.2382283,-0.238229 v -1.71514 h 0.3829224 c 0.2755969,0 0.531815,-0.07756 0.749825,-0.21084 l 0.00207,-0.0021 c 0.1134082,-0.06701 0.1827505,-0.18064 0.2733683,-0.274919 v 0.249597 1.953369 a 0.23851604,0.23851604 0 0 0 0.2382284,0.238229 h 0.6077148 a 0.23851604,0.23851604 0 0 0 0.2382284,-0.238229 v -1.71514 h 0.3824056 c 0.2158363,0 0.3891235,0.176285 0.3891235,0.382922 v 1.332218 a 0.23851604,0.23851604 0 0 0 0.2382284,0.238229 H 10.33994 a 0.23851604,0.23851604 0 0 0 0.238229,-0.238229 v -0.187585 c 0.26578,0.261236 0.628188,0.425814 1.02526,0.425814 0.503386,0 0.912312,-0.278659 1.16427,-0.668177 0.106543,0.182103 0.247937,0.344517 0.441317,0.457337 0.219224,0.13451 0.474728,0.21084 0.74414,0.21084 0.268573,0 0.523309,-0.07505 0.742074,-0.208773 l 0.0021,-0.0021 h 0.0021 c 0.114992,-0.06809 0.186611,-0.185452 0.279053,-0.281637 V 31.043 a 0.23851604,0.23851604 0 0 0 0.238228,0.238229 h 2.455148 A 0.23851604,0.23851604 0 0 0 17.910087,31.043 v -0.250114 c 0.09108,0.09512 0.161219,0.210018 0.275435,0.277503 l 0.0021,0.0021 c 0.218392,0.1335 0.474008,0.208773 0.748275,0.208773 0.270068,0 0.526113,-0.07572 0.745691,-0.21084 0.428317,-0.253607 0.720887,-0.722618 0.720886,-1.254187 v -0.472323 a 0.23851604,0.23851604 0 0 0 -0.238228,-0.238228 h -0.607715 a 0.23851604,0.23851604 0 0 0 -0.238228,0.238228 v 0.472323 c 0,0.206076 -0.176331,0.382922 -0.382406,0.382922 -0.215836,0 -0.389123,-0.176285 -0.389123,-0.382922 v -4.63641 c 0,-0.216387 0.170042,-0.382922 0.389123,-0.382922 0.209388,0 0.382406,0.167085 0.382406,0.382922 v 0.472323 a 0.23851604,0.23851604 0 0 0 0.238228,0.238228 h 0.607715 a 0.23851604,0.23851604 0 0 0 0.238228,-0.238228 v -0.472323 c 0,-0.140124 -0.06824,-0.255101 -0.10542,-0.382922 h 0.447001 v 6.24613 a 0.23851604,0.23851604 0 0 0 0.238229,0.238229 h 0.607715 a 0.23851604,0.23851604 0 0 0 0.238228,-0.238229 v -6.24613 h 0.588078 c -0.03692,0.127705 -0.10387,0.243064 -0.10387,0.382922 v 1.862936 c 0,0.436581 0.192173,0.834253 0.503845,1.103808 0.06953,0.06084 0.142852,0.109672 0.214974,0.150379 h 0.0021 c 0.218185,0.133887 0.473355,0.212907 0.744141,0.212907 0.21908,0 0.382922,0.163842 0.382922,0.382922 v 0.929659 c 0,0.21908 -0.163841,0.382406 -0.382922,0.382406 -0.219083,0 -0.382922,-0.163325 -0.382922,-0.382406 v -0.05684 -0.775146 a 0.23851604,0.23851604 0 0 0 -0.238229,-0.238746 h -0.605647 a 0.23851604,0.23851604 0 0 0 -0.238229,0.238746 v 0.775146 0.05684 c 0,0.532362 0.293212,1.001463 0.720886,1.261422 a 0.23851604,0.23851604 0 0 0 0.0078,0.0062 c 0.158289,0.08706 0.343436,0.162948 0.552938,0.189136 a 0.23851604,0.23851604 0 0 0 0.02894,0.0021 h 0.310576 a 0.23851604,0.23851604 0 0 0 0.02945,-0.0021 c 0.209725,-0.02622 0.393395,-0.102524 0.550871,-0.189136 a 0.23851604,0.23851604 0 0 0 0.0078,-0.0062 c 0.427347,-0.25976 0.722436,-0.728362 0.722436,-1.261422 V 28.89281 c 0,-0.437428 -0.194168,-0.836259 -0.505912,-1.105876 -0.06449,-0.05643 -0.137416,-0.113463 -0.220658,-0.160197 -0.216195,-0.124726 -0.469097,-0.201021 -0.740007,-0.201021 -0.215838,0 -0.382922,-0.173534 -0.382922,-0.382922 v -1.862936 c 0,-0.219082 0.163839,-0.382922 0.382922,-0.382922 0.219081,0 0.382922,0.16384 0.382922,0.382922 v 0.234095 0.238228 0.974618 a 0.23851604,0.23851604 0 0 0 0.238229,0.238228 h 0.607198 a 0.23851604,0.23851604 0 0 0 0.238228,-0.238228 v -0.974618 -0.238228 -0.234095 c 0,-0.538732 -0.297034,-1.00336 -0.722436,-1.261938 a 0.23851604,0.23851604 0 0 0 -0.0041,-0.0036 c -0.217296,-0.125363 -0.470473,-0.199471 -0.740007,-0.199471 -0.269534,0 -0.522711,0.07411 -0.740006,0.199471 a 0.23851604,0.23851604 0 0 0 -0.0041,0.0036 c -0.114771,0.06976 -0.188636,0.185997 -0.281119,0.283187 V 23.95306 a 0.23851604,0.23851604 0 0 0 -0.238229,-0.238228 h -0.923974 -1.531173 a 0.23851604,0.23851604 0 0 0 -0.238228,0.238228 v 0.107487 c -0.05241,-0.0422 -0.08302,-0.107651 -0.14056,-0.142627 a 0.23851604,0.23851604 0 0 0 -0.0041,-0.0036 c -0.217296,-0.125363 -0.470473,-0.199471 -0.740007,-0.199471 -0.275264,0 -0.529301,0.07433 -0.746208,0.199471 a 0.23851604,0.23851604 0 0 0 -0.0041,0.0036 c -0.113659,0.06909 -0.184331,0.185189 -0.275435,0.28112 V 23.95306 A 0.23851604,0.23851604 0 0 0 17.67179,23.714832 h -2.455148 a 0.23851604,0.23851604 0 0 0 -0.01757,0.01757 0.23851604,0.23851604 0 0 0 -0.01757,-0.01757 h -0.607198 a 0.23851604,0.23851604 0 0 0 -0.238228,0.238228 v 0.605648 1.347721 0.607198 3.302641 c 0,0.206076 -0.176848,0.382922 -0.382923,0.382922 -0.206074,0 -0.38292,-0.176846 -0.382922,-0.382922 v -0.269234 -0.365353 a 0.23851604,0.23851604 0 0 0 -0.238228,-0.238228 h -0.26355 v -3.763595 c 0,-0.806257 -0.658771,-1.465026 -1.465027,-1.465026 -0.525803,0 -0.973211,0.297404 -1.232483,0.720886 -0.125346,-0.21081 -0.300314,-0.390628 -0.5095294,-0.517798 a 0.23851604,0.23851604 0 0 0 -0.00413,-0.0036 C 9.6403724,23.789164 9.386335,23.714832 9.1110718,23.714832 H 8.4904378 7.882723 A 0.23851604,0.23851604 0 0 0 7.6444946,23.95306 v 0.244429 C 7.5538534,24.102401 7.4839869,23.986521 7.3711263,23.91792 a 0.23851604,0.23851604 0 0 0 -0.00413,-0.0036 C 7.1494504,23.788798 6.8944974,23.714832 6.6192342,23.714832 H 5.9980835 Z m 0.8438761,1.082104 h 0.3829224 c 0.2158363,0 0.3906738,0.177203 0.3906738,0.382922 v 2.68149 c 0,0.20572 -0.1748375,0.382923 -0.3906738,0.382923 H 6.2363118 Z m 2.4923544,0 h 0.3824056 c 0.2158363,0 0.3891235,0.176286 0.3891235,0.382922 v 2.68149 c 0,0.206637 -0.1732872,0.382923 -0.3891235,0.382923 H 8.7286662 Z m 2.8747598,0 c 0.219081,0 0.388607,0.166535 0.388607,0.382922 v 4.63641 c 0,0.206637 -0.172771,0.382922 -0.388607,0.382922 -0.206076,0 -0.382922,-0.176846 -0.382922,-0.382922 v -4.63641 c 0,-0.215837 0.173534,-0.382922 0.382922,-0.382922 z m 4.459159,0 h 1.511536 c -0.03647,0.127925 -0.103353,0.243161 -0.103353,0.382922 v 3.195154 A 0.23851604,0.23851604 0 0 0 17.340027,28.244271 H 16.062585 V 27.79882 27.191622 26.394771 Z M 3.4147786,26.331726 A 1.2194594,1.2194594 0 0 1 4.6343424,27.55129 1.2194594,1.2194594 0 0 1 3.4147786,28.770854 1.2194594,1.2194594 0 0 1 2.1952148,27.55129 1.2194594,1.2194594 0 0 1 3.4147786,26.331726 Z m 14.0559894,2.865458 v 0.619084 c 0,0.138614 0.06682,0.255105 0.103353,0.382922 h -1.511536 v -0.871264 h 1.277442 a 0.23851604,0.23851604 0 0 0 0.130741,-0.130742 z" /></g><rect
       style="fill:#7f7474;fill-opacity:1;stroke:none;stroke-width:0.1;stroke-linecap:round;stroke-linejoin:round;stroke-dasharray:none;stroke-dashoffset:1.24195;stroke-opacity:1;stop-color:#000000"
       id="rect32650"
       width="1.2160764"
       height="4.2796535"
       x="20.549517"
       y="13.568428"
       ry="0.60803819" /></g></svg>
