<?xml version="1.0" encoding="UTF-8" standalone="no"?>
<!-- Created with Inkscape (http://www.inkscape.org/) -->

<svg
   width="160"
   height="160"
   viewBox="0 0 42.333332 42.333333"
   version="1.1"
   id="svg5"
   xml:space="preserve"
   xmlns="http://www.w3.org/2000/svg"
   xmlns:svg="http://www.w3.org/2000/svg"><defs
     id="defs2"><rect
       x="34.696629"
       y="92.58427"
       width="173.416"
       height="24.289016"
       id="rect41097" /><rect
       x="12.727922"
       y="89.095454"
       width="96.86501"
       height="18.305086"
       id="rect30768" /><rect
       x="34.696629"
       y="92.584267"
       width="181.29746"
       height="61.916632"
       id="rect41097-1" /><rect
       x="34.696629"
       y="92.584267"
       width="173.416"
       height="24.289017"
       id="rect41097-9" /></defs><g
     id="layer1"><g
       id="g44120"
       transform="translate(7.406643,-8.2128668)" /><g
       id="g45629"><g
         id="g15413"
         transform="matrix(1.994083,0,0,1.994083,-23.136536,-47.733585)"><path
           id="rect15018"
           style="fill:#7f7474;fill-opacity:1;stroke-width:0.068;stroke-linecap:round;stroke-linejoin:round;stop-color:#000000"
           d="m 23.164478,27.748177 h -1.976624 c 0.08176,0.352952 0.172818,0.705898 0.22841,1.05885 h 1.56993 c 0.0436,-0.356634 0.114977,-0.706763 0.178284,-1.05885 z" /><path
           id="path15131"
           style="fill:#b1b1b1;fill-opacity:1;stroke:none;stroke-width:0.068;stroke-linecap:round;stroke-linejoin:round;stroke-opacity:1;stop-color:#000000"
           d="m 23.289018,26.789062 h -2.266529 c 0.02499,0.319675 0.09131,0.639441 0.165365,0.959115 h 1.976624 c 0.05684,-0.316131 0.106841,-0.63395 0.12454,-0.959115 z" /><path
           id="path15129"
           style="fill:#7f7474;fill-opacity:1;stroke-width:0.068;stroke-linecap:round;stroke-linejoin:round;stop-color:#000000"
           d="m 21.06073,26.012366 c -0.05176,0.258918 -0.05848,0.517779 -0.03824,0.776696 h 2.266529 c 0.01379,-0.253406 0.0081,-0.511312 -0.02997,-0.776696 z" /></g><path
         id="rect41091"
         style="fill:#fed13d;fill-opacity:1;stroke:#e0aa35;stroke-width:0.28680833;stroke-linecap:round;stroke-linejoin:miter;stroke-dasharray:0.28680833, 0.28680833;stroke-dashoffset:0;stroke-opacity:1;stop-color:#000000"
         d="m 11.860258,19.292362 c -0.344393,0 -0.621668,0.277275 -0.621668,0.621668 v 1.712556 h -0.422713 c -0.550968,0 -0.9947712,0.443803 -0.9947712,0.994772 v 14.844571 c 0,0.550969 0.4438032,0.994772 0.9947712,0.994772 h 5.477185 c 0.550968,0 0.994771,-0.443803 0.994771,-0.994772 V 22.621358 c 0,-0.550969 -0.443803,-0.994772 -0.994771,-0.994772 H 16.153536 V 19.91403 c 0,-0.344393 -0.277275,-0.621668 -0.621668,-0.621668 z m 1.862418,0.471289 a 1.1177902,1.1177902 0 0 1 1.117762,1.117761 1.1177902,1.1177902 0 0 1 -1.117762,1.117762 1.1177902,1.1177902 0 0 1 -1.117761,-1.117762 1.1177902,1.1177902 0 0 1 1.117761,-1.117761 z"
         transform="translate(7.406643,-8.2128668)" /><g
         aria-label="ABOUT"
         transform="matrix(0,-0.26458333,0.26458333,0,-7.1927457,41.399779)"
         id="text41095"
         style="font-size:10.6667px;line-height:0px;font-family:'Stretch Pro';-inkscape-font-specification:'Stretch Pro';white-space:pre;shape-inside:url(#rect41097);shape-padding:8.62921;display:inline;fill:#ff8c6d;stroke-width:2.24126;stroke-linecap:round;stroke-linejoin:round;stroke-dasharray:53.7902, 53.7902;stop-color:#000000"><path
           d="m 53.438204,99.702182 c 0,0.671998 -0.458668,1.120008 -1.344004,1.120008 h -4.949349 c -0.821336,0 -1.322671,-0.44801 -1.322671,-1.120008 0,-0.672002 0.533335,-1.205337 1.322671,-1.205337 H 52.0942 c 0.885336,0 1.344004,0.512002 1.344004,1.205337 z m 1.877339,-0.480001 c 0,-1.898673 -0.544002,-2.378674 -2.517341,-2.378674 h -6.30402 c -1.696005,0 -2.517341,0.757335 -2.517341,2.122673 v 4.22401 c 0,0.76801 0.224,1.24801 0.810669,1.24801 0.522668,0 0.736002,-0.288 1.19467,-0.94934 l 0.330668,-0.50133 c 0.277334,-0.38401 0.480001,-0.50134 1.386671,-0.50134 0.800003,0 1.16267,0.10667 1.525338,0.50134 l 0.896003,0.98133 c 0.288001,0.30934 0.640002,0.46934 1.024003,0.46934 h 2.645342 c 0.928003,0 1.525338,-0.59734 1.525338,-1.48267 z"
           style="font-family:'Golden Girdle';-inkscape-font-specification:'Golden Girdle';fill:#000000"
           id="path45631" /><path
           d="m 66.056905,101.61152 c 0,0.77867 -0.437335,1.16267 -1.408004,1.16267 h -0.789336 c -0.597335,0 -0.981337,-0.11733 -1.258671,-0.46933 l -0.650669,-0.87467 c -0.224,-0.30934 -0.533335,-0.45867 -0.970669,-0.45867 h -0.949337 c -1.002669,0 -1.568005,-0.27733 -1.568005,-1.088004 v -0.288001 c 0,-0.640002 0.309335,-1.09867 1.301338,-1.09867 h 0.576002 c 0.789336,0 1.16267,0.106667 1.738672,0.714669 l 0.586668,0.640002 c 0.309335,0.330664 0.725336,0.448004 1.280004,0.448004 h 0.704003 c 1.024003,0 1.408004,0.46933 1.408004,1.09867 z m 1.920006,-1.00267 c 0,-1.184002 -0.533335,-1.653337 -2.016006,-1.792004 -0.778669,-0.07467 -1.088004,-0.234667 -1.546672,-0.725335 L 64.083566,97.739509 C 63.432897,97.056841 62.760895,96.843507 61.608891,96.843507 H 59.02755 c -1.824006,0 -2.410675,0.501335 -2.410675,2.26134 v 3.829343 c 0,0.90667 0.586669,1.50401 1.386671,1.50401 h 7.552024 c 1.813339,0 2.421341,-0.65067 2.421341,-2.35734 z"
           style="font-family:'Golden Girdle';-inkscape-font-specification:'Golden Girdle';fill:#000000"
           id="path45633" /><path
           d="m 80.456952,98.90218 c 0,-1.408005 -0.533335,-2.058673 -2.058673,-2.058673 h -7.648025 c -0.992003,0 -1.653338,0.682668 -1.653338,1.674672 v 3.690681 c 0,1.74934 0.693335,2.22934 2.282674,2.22934 h 6.944022 c 1.429337,0 2.13334,-0.56534 2.13334,-1.79201 z m -1.632005,2.63467 c 0,0.96001 -0.320001,1.38668 -1.365338,1.38668 h -5.408017 c -0.746669,0 -1.088004,-0.34134 -1.088004,-1.03467 v -0.39467 c 0,-0.52267 0.224001,-0.832 0.896003,-0.94934 l 1.696006,-0.29867 c 0.576001,-0.10666 0.736002,-0.224 0.992003,-0.469331 l 0.490668,-0.469335 c 0.458668,-0.437334 0.832003,-0.586668 1.376004,-0.586668 h 1.120004 c 0.853336,0 1.290671,0.373334 1.290671,1.22667 z"
           style="font-family:'Golden Girdle';-inkscape-font-specification:'Golden Girdle';fill:#000000"
           id="path45635" /><path
           d="m 92.819661,97.792843 c 0,-0.554668 -0.330668,-0.949336 -0.832003,-0.949336 h -0.192 c -0.501335,0 -0.832003,0.394668 -0.832003,0.949336 v 2.00534 c 0,0.469337 -0.256001,0.757337 -0.725335,0.821337 l -1.920007,0.26667 c -0.469334,0.064 -0.629335,0.16 -0.949336,0.45866 l -0.960003,0.90667 c -0.277334,0.26667 -0.437335,0.30934 -0.885336,0.30934 h -1.09867 c -0.544002,0 -0.821336,-0.24534 -0.821336,-0.98134 v -3.786677 c 0,-0.554668 -0.320001,-0.949336 -0.832003,-0.949336 h -0.181334 c -0.501335,0 -0.832002,0.394668 -0.832002,0.949336 v 4.362677 c 0,1.48267 0.810669,2.28268 2.336007,2.28268 h 6.965355 c 1.141337,0 1.760006,-0.544 1.760006,-1.55734 z"
           style="font-family:'Golden Girdle';-inkscape-font-specification:'Golden Girdle';fill:#000000"
           id="path45637" /><path
           d="m 102.81436,102.74219 c 0,-0.896 -0.29866,-1.44 -0.94933,-1.504 l -1.973343,-0.20267 c -0.394668,-0.0427 -0.682669,-0.21333 -0.682669,-0.82134 v -0.789332 c 0,-0.384001 0.256001,-0.629335 0.661335,-0.682669 l 1.610677,-0.224 c 0.52266,-0.07467 0.93866,-0.256001 0.93866,-0.885337 0,-0.576001 -0.384,-0.789335 -0.97067,-0.789335 h -6.570682 c -0.650669,0 -1.173337,0.234667 -1.173337,0.842669 0,0.565335 0.309334,0.821336 0.949336,0.928003 l 1.738672,0.288001 c 0.704002,0.117333 0.928003,0.533335 0.928003,1.408 v 2.88001 c 0,0.78934 0.544002,1.24801 1.280004,1.24801 h 2.901344 c 0.85333,0 1.312,-0.62934 1.312,-1.69601 z"
           style="font-family:'Golden Girdle';-inkscape-font-specification:'Golden Girdle';fill:#000000"
           id="path45639" /></g><g
         aria-label="ME"
         transform="matrix(0,-0.26458333,0.26458333,0,-4.5116699,41.353932)"
         id="text41095-8"
         style="font-size:10.6667px;line-height:0px;font-family:'Stretch Pro';-inkscape-font-specification:'Stretch Pro';white-space:pre;shape-inside:url(#rect41097-9);shape-padding:8.62921;display:inline;fill:#ff8c6d;stroke-width:2.24126;stroke-linecap:round;stroke-linejoin:round;stroke-dasharray:53.7902, 53.7902;stop-color:#000000"><path
           d="m 43.976841,103.48886 c 0,0.55467 0.330667,0.94934 0.832002,0.94934 h 0.192001 c 0.501335,0 0.832002,-0.39467 0.832002,-0.94934 v -1.81334 c 0,-0.72533 0.08533,-0.896 1.024004,-1.024 l 1.09867,-0.14934 c 0.608002,-0.0747 0.768002,-0.18133 1.077337,-0.49066 l 0.778669,-0.778673 c 0.213334,-0.213334 0.416001,-0.320001 0.778669,-0.320001 h 0.213334 c 0.533335,0 0.800002,0.341335 0.800002,0.917337 v 3.658677 c 0,0.55467 0.330668,0.94934 0.832003,0.94934 h 0.192001 c 0.501335,0 0.832002,-0.39467 0.832002,-0.94934 v -2.73067 c 0,-1.397342 0.469335,-2.026677 2.304007,-2.026677 h 1.280005 c 1.749338,0 2.314674,0.608001 2.314674,2.090677 v 2.66667 c 0,0.55467 0.330667,0.94934 0.832002,0.94934 h 0.181334 c 0.512002,0 0.842669,-0.39467 0.842669,-0.94934 v -4.469347 c 0,-1.386671 -1.152003,-2.176006 -2.474674,-2.176006 H 45.512845 c -0.864002,0 -1.536004,0.618668 -1.536004,1.600005 z"
           style="font-family:'Golden Girdle';-inkscape-font-specification:'Golden Girdle';fill:#000000"
           id="path45744" /><path
           d="m 73.918278,103.61686 c 0,-0.56533 -0.352001,-0.84267 -0.981337,-0.84267 h -7.637357 c -0.544002,0 -0.810669,-0.29867 -0.810669,-0.68267 0,-0.384 0.288001,-0.68267 0.810669,-0.68267 h 4.800015 c 0.597335,0 0.981336,-0.26666 0.981336,-0.82133 0,-0.55467 -0.373334,-0.853338 -0.992003,-0.853338 h -2.816009 c -0.586668,0 -0.874669,-0.202667 -0.874669,-0.640002 0,-0.480001 0.288001,-0.682668 0.874669,-0.682668 h 5.589351 c 0.682669,0 1.00267,-0.234668 1.00267,-0.77867 0,-0.554668 -0.394668,-0.789335 -1.00267,-0.789335 h -8.938695 c -0.928002,0 -1.408004,0.672002 -1.408004,1.482671 v 3.722682 c 0,1.824 0.533335,2.38934 2.410674,2.38934 h 8.010692 c 0.629336,0 0.981337,-0.256 0.981337,-0.82134 z"
           style="font-family:'Golden Girdle';-inkscape-font-specification:'Golden Girdle';fill:#000000"
           id="path45746" /></g><g
         id="g43007"
         transform="matrix(0.07605481,0,0,0.07605481,20.071683,16.685912)">
	<g
   id="g43005">
		<circle
   style="fill:#010002"
   cx="28.554001"
   cy="5.6199999"
   r="5.6199999"
   id="circle43001" />
		<path
   style="fill:#010002"
   d="M 46.629,1.669 C 45.697,0.74 44.191,0.74 43.266,1.669 L 31.861,13.072 c -0.906,-0.592 -1.986,-0.939 -3.149,-0.939 -1.436,0 -2.746,0.527 -3.756,1.393 L 13.099,1.669 c -0.928,-0.929 -2.435,-0.929 -3.364,0 -0.928,0.929 -0.928,2.436 0,3.364 L 22.232,17.53 c 0.208,0.208 0.448,0.362 0.702,0.478 v 13.498 c 0,0.294 0.029,0.578 0.071,0.859 -0.042,0.179 -0.069,0.358 -0.069,0.55 v 21.069 c 0,1.315 1.065,2.381 2.379,2.381 1.314,0 2.379,-1.064 2.379,-2.381 V 37.188 c 0.331,0.061 0.67,0.096 1.019,0.096 0.35,0 0.688,-0.035 1.021,-0.096 v 16.797 c 0,1.315 1.064,2.381 2.379,2.381 1.313,0 2.379,-1.064 2.379,-2.381 v -21.07 c 0,-0.192 -0.029,-0.376 -0.071,-0.556 0.041,-0.278 0.069,-0.562 0.069,-0.854 V 17.91 c 0,-0.233 -0.018,-0.463 -0.045,-0.691 L 46.629,5.033 c 0.93,-0.928 0.93,-2.435 0,-3.364 z"
   id="path43003" />
	</g>
</g><rect
         style="fill:#7f7474;fill-opacity:1;stroke:none;stroke-width:0.1;stroke-linecap:round;stroke-linejoin:round;stroke-dasharray:none;stroke-dashoffset:1.24195;stroke-opacity:1;stop-color:#000000"
         id="rect32650"
         width="1.2160764"
         height="4.2796535"
         x="20.549517"
         y="8.8912115"
         ry="0.60803819" /></g><g
       style="fill:none"
       id="g36816"
       transform="matrix(0.91788538,0.91788538,-0.91788538,0.91788538,19.199352,3.4122651)" /></g></svg>
