<?xml version="1.0" encoding="UTF-8" standalone="no"?>
<!-- Created with Inkscape (http://www.inkscape.org/) -->

<svg
   width="1000mm"
   height="1000mm"
   viewBox="0 0 1000 1000"
   version="1.1"
   id="svg5"
   sodipodi:docname="smile logo.svg"
   inkscape:version="1.2.2 (732a01da63, 2022-12-09)"
   xml:space="preserve"
   xmlns:inkscape="http://www.inkscape.org/namespaces/inkscape"
   xmlns:sodipodi="http://sodipodi.sourceforge.net/DTD/sodipodi-0.dtd"
   xmlns="http://www.w3.org/2000/svg"
   xmlns:svg="http://www.w3.org/2000/svg"><sodipodi:namedview
     id="namedview7"
     pagecolor="#ffffff"
     bordercolor="#000000"
     borderopacity="0.25"
     inkscape:showpageshadow="2"
     inkscape:pageopacity="0.0"
     inkscape:pagecheckerboard="0"
     inkscape:deskcolor="#d1d1d1"
     inkscape:document-units="mm"
     showgrid="true"
     inkscape:zoom="0.19821479"
     inkscape:cx="1720.356"
     inkscape:cy="2005.4003"
     inkscape:window-width="1920"
     inkscape:window-height="1051"
     inkscape:window-x="-9"
     inkscape:window-y="-9"
     inkscape:window-maximized="1"
     inkscape:current-layer="layer3"><inkscape:grid
       type="xygrid"
       id="grid7859" /></sodipodi:namedview><defs
     id="defs2" /><g
     inkscape:groupmode="layer"
     id="layer2"
     inkscape:label="bg"
     transform="translate(-38.822449,51.946045)"
     style="display:inline;fill:#91021a;fill-opacity:1"><ellipse
       style="fill:#91021a;fill-opacity:1;stroke:#000000;stroke-width:11.47;stroke-linecap:round;stroke-linejoin:round;stroke-dasharray:435.86, 45.88;stroke-dashoffset:0;stroke-opacity:1"
       id="path866"
       cx="543.27637"
       cy="454.5101"
       rx="404.45392"
       ry="406.45615" /></g><g
     inkscape:groupmode="layer"
     id="layer3"
     inkscape:label="bg 1"
     style="display:none;fill:#91021a;fill-opacity:1;stroke-width:3.87129;stroke-dasharray:none"
     transform="matrix(2.9635548,0,0,2.9621144,539.26565,390.0016)"><path
       sodipodi:type="star"
       style="fill:#91021a;fill-opacity:1;stroke:#000000;stroke-width:17.656;stroke-linecap:round;stroke-linejoin:round;stroke-dasharray:670.93, 70.6242;stroke-dashoffset:0;stroke-opacity:1"
       id="path7976"
       inkscape:flatsided="false"
       sodipodi:sides="5"
       sodipodi:cx="-53.393257"
       sodipodi:cy="186.8764"
       sodipodi:r1="492.3613"
       sodipodi:r2="757.47894"
       sodipodi:arg1="1.2367658"
       sodipodi:arg2="1.8650843"
       inkscape:rounded="0.42"
       inkscape:randomized="0"
       d="M 108.02909,652.0242 C -74.98471,715.53631 -87.713718,967.98094 -273.10647,911.7905 -458.49923,855.60006 -328.93487,638.5669 -445.89285,484.13675 -562.85083,329.70661 -806.87342,395.61028 -810.72265,201.9275 -814.57188,8.2447022 -568.12349,64.400799 -457.39369,-94.554398 -346.6639,-253.50958 -484.74915,-465.2235 -301.73535,-528.73561 c 183.01381,-63.51211 205.762926,188.22743 391.155691,244.41787 185.392749,56.19043 344.073969,-140.55964 461.031939,13.8705 116.95798,154.43016 -115.43068,253.857651 -111.58144,447.54045 3.84923,193.68278 240.00486,283.79847 129.27507,442.75365 -110.7298,158.9552 -277.10302,-31.33477 -460.11682,32.17734 z"
       inkscape:transform-center-x="8.4061154"
       inkscape:transform-center-y="-8.7383608"
       transform="matrix(0.20718997,0.07179284,-0.0718047,0.20715576,13.690096,10.161173)" /></g><g
     inkscape:label="Laag 1"
     inkscape:groupmode="layer"
     id="layer1"
     style="display:inline"><path
       style="display:inline;fill:#2e2e2e;fill-opacity:1;fill-rule:nonzero;stroke:#000000;stroke-width:11.47;stroke-linecap:round;stroke-linejoin:round;stroke-dasharray:435.86, 103.229;stroke-dashoffset:0;stroke-opacity:1"
       d="m 254.32439,652.16003 c 18.95294,15.87233 56.31338,19.10276 73.45395,-11.5558 17.14057,-30.65854 -2.96063,-64.85464 -28.12216,-73.6931 -38.30603,-13.45534 -15.90292,-78.03695 38.86642,-47.31842 26.59719,14.91725 48.41291,35.06528 55.82941,72.14626 7.41652,37.08054 -6.74996,68.61304 -20.30836,88.96116 36.68866,29.95597 59.39197,61.61852 146.51539,61.97752 87.12356,0.36005 112.97316,-38.82701 162.55277,-72.15154 24.2275,-10.85558 48.49174,12.31792 34.70735,36.21802 -8.13546,14.10623 -53.6437,52.80551 -93.76747,70.58841 -40.12327,17.78297 -71.27946,20.39811 -103.49265,20.26851 -78.60673,-0.3166 -141.6229,-30.36285 -192.7286,-82.33138 -8.20121,4.67261 -35.61492,10.90404 -54.9336,7.17884 -19.31868,-3.72527 -49.3371,-10.79994 -61.05857,-29.02102 -20.79036,-32.31867 16.08989,-63.3736 42.48612,-41.26746 z"
       id="path1840"
       sodipodi:nodetypes="szsszczcszsczss" /></g></svg>
